<svg version="1.1" xmlns="http://www.w3.org/2000/svg" width="18px" height="18px" viewBox="0 0 48 48">
  <g>
    <path fill="#EA4335" d="M24 9.5c3.54 0 6.71 1.22 9.21 3.6l6.85-6.85C35.9 2.38 30.47 0 24 0 14.62 0 6.51 5.38 2.56 13.22l7.98 6.19C12.43 13.72 17.74 9.5 24 9.5z"></path>
    <path fill="#4285F4" d="M46.98 24.55c0-1.57-.15-3.09-.42-4.55H24v8.51h12.8c-.57 3.32-2.31 6.17-4.79 7.98l7.98 6.19C45.27 41.65 48 34.13 48 24c0-.73-.04-1.45-.11-2.15l-1-.3z"></path>
    <path fill="#FBBC05" d="M10.53 28.59c-.48-1.45-.76-2.99-.76-4.59s.27-3.14.76-4.59l-7.98-6.19C.92 16.46 0 20.12 0 24c0 3.88.92 7.54 2.56 10.78l7.97-6.19z"></path>
    <path fill="#34A853" d="M24 48c6.48 0 11.93-2.13 15.89-5.81l-7.98-6.19c-2.11 1.45-4.82 2.3-7.91 2.3-6.26 0-11.57-4.22-13.47-9.91l-7.98 6.19C6.51 42.62 14.62 48 24 48z"></path>
    <path fill="none" d="M0 0h48v48H0z"></path>
  </g>
</svg>